<svg width="49" height="50" viewBox="0 0 49 50" fill="none" xmlns="http://www.w3.org/2000/svg">
<path d="M38 24.6L45.8 16.8C47.6 15 47.6 12.2 45.8 10.4L34.7 21.5L32.7 19.5L40.6 11.6C42.4 9.80001 42.4 7.00001 40.6 5.20001L29.4 16.4L27.4 14.4L35.4 6.40001C37.2 4.60001 37.2 1.8 35.4 0L24.1 11.1L16.9 3.8C15.1 2 12.3 2 10.5 3.8L20.9 14.2L18.8 16.3L11.6 9.10001C9.80001 7.30001 6.99998 7.30001 5.19998 9.10001L15.6 19.5L13.6 21.5L6.39999 14.3C4.59999 12.5 1.8 12.5 0 14.3L10.2 24.5L2.39999 32.3C0.599994 34.1 0.599994 36.9 2.39999 38.7L13.5 27.6L15.5 29.6L7.60001 37.5C5.80001 39.3 5.80001 42.1 7.60001 43.9L18.8 32.7L20.8 34.7L12.8 42.7C11 44.5 11 47.3 12.8 49.1L24 37.9L31.2 45.2C33 47 35.8 47 37.6 45.2L27.2 34.8L29.3 32.7L36.5 39.9C38.3 41.7 41.1 41.7 42.9 39.9L32.5 29.5L34.5 27.5L41.7 34.7C43.5 36.5 46.3 36.5 48.1 34.7L38 24.6ZM24.1 17.4L26.1 19.4L24 21.5L22 19.5L24.1 17.4ZM18.8 26.4L17 24.6L18.8 22.8L20.6 24.7L18.8 26.4ZM24.1 31.6L22.1 29.6L24.2 27.5L26.2 29.5L24.1 31.6ZM27.6 24.5L29.4 22.7L31.2 24.5L29.4 26.3L27.6 24.5Z" fill="#201B21"/>
</svg>
